<?xml version="1.0" encoding="UTF-8"?>
<svg width="36px" height="42px" viewBox="0 0 36 42" version="1.1" xmlns="http://www.w3.org/2000/svg" xmlns:xlink="http://www.w3.org/1999/xlink">
    <title>编组 2</title>
    <defs>
        <linearGradient x1="50%" y1="0%" x2="50%" y2="100%" id="linearGradient-1">
            <stop stop-color="#06B2ED" offset="0%"></stop>
            <stop stop-color="#2B57E6" offset="100%"></stop>
        </linearGradient>
        <linearGradient x1="50%" y1="0%" x2="50%" y2="100%" id="linearGradient-2">
            <stop stop-color="#06B2ED" offset="0%"></stop>
            <stop stop-color="#2B57E6" offset="100%"></stop>
        </linearGradient>
        <linearGradient x1="50%" y1="0%" x2="50%" y2="100%" id="linearGradient-3">
            <stop stop-color="#EF7054" offset="0%"></stop>
            <stop stop-color="#DB3D2A" offset="100%"></stop>
        </linearGradient>
    </defs>
    <g id="页面-1" stroke="none" stroke-width="1" fill="none" fill-rule="evenodd">
        <g id="编组-2" transform="translate(1.000000, 1.000000)">
            <path d="M5.05597957,32 C6.36397957,32 7.32153468,32.42 7.9265179,33.272 C8.5040091,34.076 8.67470638,35.144 8.44073671,36.464 C8.20676705,37.784 7.65959132,38.84 6.79708253,39.644 C5.89219274,40.484 4.78574785,40.904 3.47774785,40.904 C2.15774785,40.904 1.20231974,40.472 0.607209525,39.632 C0.0318453159,38.816 -0.128978954,37.76 0.100736715,36.464 C0.33257938,35.156 0.86775511,34.1 1.7323909,33.284 C2.62953468,32.42 3.73597957,32 5.05597957,32 Z M4.83689889,33.236 C3.94889889,33.236 3.21172397,33.536 2.61337412,34.136 C2.04327827,34.712 1.67915046,35.48 1.50473671,36.464 C1.33244996,37.436 1.42432216,38.204 1.79022631,38.78 C2.16600346,39.368 2.80882853,39.668 3.69682853,39.668 C4.58482853,39.668 5.31987646,39.38 5.89984532,38.816 C6.46781417,38.252 6.84606897,37.472 7.02473671,36.464 C7.20340446,35.456 7.10378625,34.664 6.73788211,34.088 C6.35997796,33.512 5.72489889,33.236 4.83689889,33.236 Z M14.2719796,32 C12.9039796,32 11.7812807,32.444 10.8996289,33.356 C10.1232471,34.148 9.62619839,35.192 9.40073671,36.464 C9.17102105,37.76 9.28809931,38.792 9.76397151,39.56 C10.3025737,40.448 11.2897478,40.904 12.7177478,40.904 C13.6417478,40.904 14.4805418,40.64 15.2341296,40.112 C16.0420985,39.548 16.6243533,38.768 16.995021,37.76 L15.627021,37.76 C15.3441632,38.408 14.9689563,38.9 14.5035274,39.224 C14.0684795,39.512 13.5368285,39.668 12.9248285,39.668 C11.9888285,39.668 11.3460035,39.368 11.0040993,38.792 C10.6918142,38.252 10.626069,37.472 10.8047367,36.464 C10.9791505,35.48 11.3192783,34.712 11.8371201,34.16 C12.403724,33.536 13.1288989,33.236 14.0288989,33.236 C14.6288989,33.236 15.0996289,33.356 15.436835,33.62 C15.7860411,33.884 15.9777232,34.292 16.0217543,34.856 L17.3897543,34.856 C17.4108981,33.992 17.1622639,33.296 16.6275978,32.792 C16.0731856,32.264 15.2799796,32 14.2719796,32 Z M19.3062016,32.168 L17.7875258,40.736 L24.1715258,40.736 L24.3842255,39.536 L19.4042255,39.536 L19.8636568,36.944 L24.3516568,36.944 L24.5643565,35.744 L20.0763565,35.744 L20.4975019,33.368 L25.2735019,33.368 L25.4862016,32.168 L19.3062016,32.168 Z M26.2302016,32.168 L27.7595258,40.736 L29.4515258,40.736 L34.0182016,32.168 L32.4942016,32.168 L28.9042894,39.152 L28.8682894,39.152 L27.7542016,32.168 L26.2302016,32.168 Z" id="形状结合" stroke="#000000" stroke-width="0.2" fill="#192038" fill-rule="nonzero"></path>
            <g id="编组" transform="translate(3.000000, 0.000000)">
                <polygon id="路径" stroke="#FFCE99" stroke-linejoin="round" fill-rule="nonzero" points="26.0005615 2 2.00056148 2 2.00056148 26 26.0005615 26"></polygon>
                <path d="M28.0005615,13.5 L11.5675615,28 L0.000561480147,28 L0.000561480147,21 L23.5005615,13.5 L28.0005615,13.5 Z" id="形状结合" fill="url(#linearGradient-1)"></path>
                <path d="M28.0005615,0 L28.0005615,6 L4.50056148,13.5 L0.000561480147,13.5 L15.3005615,0 L28.0005615,0 Z" id="形状结合" fill="url(#linearGradient-2)"></path>
                <path d="M0.50056148,13 C6.29955135,13 11.0005615,17.7010101 11.0005615,23.5 C11.0005615,25.1106349 10.6379173,26.6365697 9.98982628,28.0006072 L0.000561480147,28 L-0.000234810449,13.0117325 C0.165718778,13.00394 0.332680015,13 0.50056148,13 Z" id="形状结合" fill="url(#linearGradient-3)"></path>
                <path d="M17.5005615,0 C23.2995514,0 28.0005615,4.70101013 28.0005615,10.5 C28.0005615,12.1106349 27.6379173,13.6365697 26.9898263,15.0006072 L17.0005615,15 L16.9997652,0.011732463 C17.1657188,0.00393996157 17.33268,0 17.5005615,0 Z" id="形状结合" fill="url(#linearGradient-3)" transform="translate(22.500281, 7.500304) scale(-1, -1) translate(-22.500281, -7.500304) "></path>
                <polygon id="路径" stroke="#FFCE99" stroke-linejoin="round" fill-rule="nonzero" points="28.0005615 0 28.0005615 28 0.000561480147 28 0.000561480147 0"></polygon>
            </g>
        </g>
    </g>
</svg>